<?xml version="1.0" encoding="iso-8859-1"?>
<!-- Generator: Adobe Illustrator 22.0.0, SVG Export Plug-In . SVG Version: 6.00 Build 0)  -->
<svg version="1.1" id="Layer_1" xmlns="http://www.w3.org/2000/svg" xmlns:xlink="http://www.w3.org/1999/xlink" x="0px" y="0px"
	 viewBox="-49 141 512 512" style="enable-background:new -49 141 512 512;" xml:space="preserve">
<path style="fill:#EC4C7A;" d="M-17.33,141v68.619h47.505v179.464h68.619v55.423c0,10.186,8.288,18.474,18.474,18.474h50.144
	v171.546c0,10.186,8.288,18.474,18.474,18.474h42.227c10.186,0,18.474-8.288,18.474-18.474V462.979h50.144
	c10.186,0,18.474-8.288,18.474-18.474v-55.423h68.619V209.619h47.505V141H-17.33z M230.753,494.65h-47.505v-31.67h47.505V494.65z
	 M183.247,510.485h47.505v31.67h-47.505V510.485z M183.247,557.99h47.505v31.67h-47.505V557.99z M228.113,637.165h-42.227
	c-1.43,0-2.639-1.209-2.639-2.639v-29.031h47.505v29.031C230.753,635.956,229.544,637.165,228.113,637.165z M299.371,444.505
	c0,1.43-1.209,2.639-2.639,2.639H117.268c-1.43,0-2.639-1.209-2.639-2.639v-55.423h184.742V444.505z M367.99,373.247H46.01V209.619
	H367.99V373.247z M415.495,193.784H-1.495v-36.948h416.99V193.784z"/>
<path style="fill:#EC4C7A;" d="M336.32,230.732H77.68v121.402H336.32V230.732z M320.485,336.299H93.515v-89.732h226.969V336.299z"/>
<rect x="122.546" y="267.68" style="fill:#EC4C7A;" width="168.907" height="15.835"/>
<rect x="122.546" y="299.351" style="fill:#EC4C7A;" width="116.124" height="15.835"/>
<rect x="265.062" y="299.351" style="fill:#EC4C7A;" width="26.392" height="15.835"/>
<rect x="143.66" y="410.196" style="fill:#EC4C7A;" width="137.237" height="15.835"/>
</svg>
