<?xml version="1.0" encoding="iso-8859-1"?>
<!-- Generator: Adobe Illustrator 22.0.0, SVG Export Plug-In . SVG Version: 6.00 Build 0)  -->
<svg version="1.1" id="Layer_1" xmlns="http://www.w3.org/2000/svg" xmlns:xlink="http://www.w3.org/1999/xlink" x="0px" y="0px"
	 viewBox="-49 141 512 512" style="enable-background:new -49 141 512 512;" xml:space="preserve">
<path style="fill:#4CAF9C;" d="M330.853,369.907c14.329,0,25.987-11.658,25.987-25.987V166.987
	c0-14.329-11.658-25.987-25.987-25.987h-88.467c-14.329,0-25.987,11.658-25.987,25.987v53.659c-2.303-0.153-4.657,0.642-6.418,2.403
	c-3.239,3.239-3.239,8.491,0,11.728l12.382,12.382H197.6v-80.173c0-14.329-11.658-25.987-25.987-25.987H83.147
	c-14.329,0-25.987,11.658-25.987,25.987V343.92c0,14.329,11.658,25.987,25.987,25.987h35.94v54.186h-35.94
	c-14.329,0-25.987,11.658-25.987,25.987v176.933C57.16,641.342,68.817,653,83.147,653h88.467c14.329,0,25.987-11.658,25.987-25.987
	V450.08c0-14.329-11.658-25.987-25.987-25.987h-35.94v-54.186h35.94c14.329,0,25.987-11.658,25.987-25.987v-80.173h24.763
	l-12.382,12.382c-3.239,3.239-3.239,8.491,0,11.728c1.62,1.619,3.743,2.43,5.865,2.43c0.185,0,0.368-0.014,0.553-0.027v53.659
	c0,14.329,11.658,25.987,25.987,25.987h35.94v54.186h-35.94c-14.329,0-25.987,11.658-25.987,25.987v176.933
	c0,14.329,11.658,25.987,25.987,25.987h88.467c14.329,0,25.987-11.658,25.987-25.987V450.08c0-14.329-11.658-25.987-25.987-25.987
	h-35.94v-54.186H330.853z M171.613,440.68c5.183,0,9.4,4.217,9.4,9.4v176.933c0,5.183-4.217,9.4-9.4,9.4H83.147
	c-5.183,0-9.4-4.217-9.4-9.4V450.08c0-5.183,4.217-9.4,9.4-9.4h35.94v33.61l-12.381-12.382c-3.24-3.239-8.491-3.239-11.73,0
	s-3.239,8.491,0,11.728l26.54,26.54c0.011,0.011,0.023,0.02,0.033,0.03c0.184,0.181,0.375,0.355,0.575,0.52
	c0.093,0.076,0.191,0.143,0.286,0.215c0.122,0.091,0.24,0.185,0.367,0.27c0.113,0.075,0.23,0.142,0.346,0.21
	c0.116,0.07,0.23,0.143,0.349,0.207c0.118,0.063,0.241,0.117,0.363,0.175c0.124,0.059,0.245,0.121,0.373,0.173
	c0.118,0.049,0.24,0.088,0.361,0.132c0.135,0.049,0.268,0.1,0.405,0.142c0.122,0.036,0.244,0.063,0.367,0.094
	c0.139,0.035,0.278,0.074,0.419,0.103c0.143,0.029,0.286,0.045,0.43,0.065c0.124,0.018,0.247,0.041,0.372,0.054
	c0.272,0.027,0.545,0.041,0.818,0.041c0.273,0,0.546-0.014,0.818-0.041c0.126-0.012,0.248-0.035,0.372-0.054
	c0.144-0.021,0.288-0.038,0.43-0.065c0.143-0.029,0.28-0.067,0.419-0.103c0.123-0.031,0.245-0.058,0.367-0.094
	c0.138-0.042,0.271-0.093,0.406-0.142c0.121-0.043,0.241-0.083,0.359-0.132c0.127-0.053,0.25-0.115,0.374-0.174
	c0.121-0.057,0.243-0.111,0.362-0.174c0.119-0.064,0.233-0.137,0.349-0.207s0.233-0.135,0.346-0.21
	c0.126-0.084,0.245-0.178,0.367-0.27c0.095-0.072,0.194-0.138,0.286-0.215c0.2-0.164,0.391-0.337,0.575-0.52
	c0.011-0.011,0.023-0.02,0.033-0.03l26.54-26.54c3.239-3.239,3.239-8.491,0-11.728c-3.24-3.239-8.491-3.239-11.73,0l-12.381,12.382
	v-33.61H171.613z M83.147,353.32c-5.183,0-9.4-4.217-9.4-9.4V166.987c0-5.183,4.217-9.4,9.4-9.4h88.467c5.183,0,9.4,4.217,9.4,9.4
	v80.173h-29.01c-3.47-10.273-13.193-17.693-24.622-17.693c-14.329,0-25.987,11.658-25.987,25.987c0,11.43,7.42,21.152,17.693,24.622
	v73.244H83.147z M127.38,264.853c-5.183,0-9.4-4.217-9.4-9.4s4.217-9.4,9.4-9.4s9.4,4.217,9.4,9.4S132.563,264.853,127.38,264.853z
	 M181.013,343.92c0,5.183-4.217,9.4-9.4,9.4h-35.94v-73.244c7.667-2.59,13.739-8.662,16.329-16.329h29.01V343.92z M330.853,440.68
	c5.183,0,9.4,4.217,9.4,9.4v176.933c0,5.183-4.217,9.4-9.4,9.4h-88.467c-5.183,0-9.4-4.217-9.4-9.4V450.08
	c0-5.183,4.217-9.4,9.4-9.4h35.94v33.61l-12.381-12.382c-3.24-3.239-8.491-3.239-11.73,0c-3.239,3.239-3.239,8.491,0,11.728
	l26.54,26.54c0.011,0.011,0.023,0.02,0.033,0.03c0.184,0.181,0.375,0.355,0.575,0.52c0.093,0.076,0.191,0.143,0.286,0.215
	c0.122,0.091,0.24,0.185,0.367,0.27c0.113,0.075,0.23,0.142,0.346,0.21c0.116,0.07,0.23,0.143,0.349,0.207
	c0.118,0.063,0.241,0.117,0.363,0.175c0.124,0.059,0.245,0.121,0.373,0.173c0.118,0.049,0.24,0.088,0.36,0.132
	c0.135,0.049,0.268,0.1,0.405,0.142c0.122,0.036,0.244,0.063,0.367,0.094c0.139,0.035,0.278,0.074,0.419,0.103
	c0.143,0.029,0.286,0.045,0.43,0.065c0.124,0.018,0.247,0.041,0.372,0.054c0.272,0.027,0.545,0.041,0.818,0.041
	c0.273,0,0.546-0.014,0.818-0.041c0.126-0.012,0.248-0.035,0.372-0.054c0.144-0.021,0.288-0.038,0.43-0.065
	c0.143-0.029,0.28-0.067,0.419-0.103c0.123-0.031,0.245-0.058,0.367-0.094c0.138-0.042,0.271-0.093,0.406-0.142
	c0.121-0.043,0.241-0.083,0.359-0.132c0.127-0.053,0.25-0.115,0.374-0.174c0.121-0.057,0.243-0.111,0.362-0.174
	c0.119-0.064,0.233-0.137,0.349-0.207c0.116-0.07,0.233-0.135,0.346-0.21c0.126-0.084,0.245-0.178,0.367-0.27
	c0.095-0.072,0.194-0.138,0.286-0.215c0.2-0.164,0.391-0.337,0.575-0.52c0.011-0.011,0.023-0.02,0.033-0.03l26.54-26.54
	c3.239-3.239,3.239-8.491,0-11.728c-3.24-3.239-8.491-3.239-11.73,0l-12.381,12.382v-33.61H330.853z M242.387,353.32
	c-5.183,0-9.4-4.217-9.4-9.4v-67.337l15.265-15.265c3.239-3.239,3.239-8.491,0-11.728l-15.265-15.265v-67.337
	c0-5.183,4.217-9.4,9.4-9.4h88.467c5.183,0,9.4,4.217,9.4,9.4V343.92c0,5.183-4.217,9.4-9.4,9.4h-35.94v-73.244
	c10.273-3.47,17.693-13.193,17.693-24.622c0-14.329-11.658-25.987-25.987-25.987s-25.987,11.658-25.987,25.987
	c0,11.43,7.42,21.152,17.693,24.622v73.244H242.387z M286.62,264.853c-5.183,0-9.4-4.217-9.4-9.4s4.217-9.4,9.4-9.4
	s9.4,4.217,9.4,9.4S291.803,264.853,286.62,264.853z"/>
<path style="fill:#4CAF9C;" d="M286.62,512.559c-14.329,0-25.987,11.658-25.987,25.987c0,14.329,11.658,25.987,25.987,25.987
	s25.987-11.658,25.987-25.987C312.607,524.217,300.949,512.559,286.62,512.559z M286.62,547.946c-5.183,0-9.4-4.216-9.4-9.4
	s4.217-9.4,9.4-9.4s9.4,4.217,9.4,9.4S291.803,547.946,286.62,547.946z"/>
<path style="fill:#4CAF9C;" d="M127.38,512.559c-14.329,0-25.987,11.658-25.987,25.987c0,14.329,11.658,25.987,25.987,25.987
	s25.987-11.658,25.987-25.987C153.367,524.217,141.709,512.559,127.38,512.559z M127.38,547.946c-5.183,0-9.4-4.216-9.4-9.4
	s4.217-9.4,9.4-9.4s9.4,4.217,9.4,9.4S132.563,547.946,127.38,547.946z"/>
</svg>
